<svg width="32" height="32" viewBox="0 0 32 32" fill="none" xmlns="http://www.w3.org/2000/svg">
    <g clip-path="url(#clip0)">
        <path d="M25.3335 32L25.3335 28.1667C25.3335 22.7043 21.8195 19.2188 18.0502 16.0215C21.8082 12.8408 25.3335 9.38767 25.3335 4L25.3335 0L22.6668 -1.16564e-07L22.6668 4C22.6668 8.37067 19.5195 11.307 15.975 14.2833C12.4612 11.3352 9.3335 8.43533 9.3335 4.16667L9.3335 -6.99382e-07L6.66683 -8.15946e-07L6.66683 4.16667C6.66683 9.456 10.1717 12.8698 13.899 16.0217C10.1605 19.1905 6.66683 22.6367 6.66683 28L6.66683 32L9.33349 32L9.33349 28C9.3335 23.65 12.4512 20.7208 15.975 17.759C19.5295 20.7485 22.6668 23.7142 22.6668 28.1667L22.6668 32L25.3335 32Z" fill="#3FD292"/>
        <path d="M20.1748 8L11.7748 8C12.3838 8.97345 13.1094 9.86895 13.9353 10.6667L18.0108 10.6667C18.8364 9.86772 19.563 8.97241 20.1748 8Z" fill="black"/>
        <path d="M10.763 5.33341L21.213 5.33341C21.2934 4.89353 21.3338 4.44725 21.3335 4.00008L21.3335 2.66675L10.6668 2.66675L10.6668 4.16675C10.6666 4.55762 10.6988 4.94785 10.763 5.33341Z" fill="black"/>
        <path d="M11.841 23.9999L20.1094 23.9999C19.4959 23.03 18.7712 22.1351 17.9502 21.3333L13.9969 21.3333C13.1756 22.134 12.452 23.0291 11.841 23.9999Z" fill="black"/>
        <path d="M21.1835 26.6667L10.7917 26.6667C10.7088 27.1064 10.6672 27.5527 10.6672 28.0001L10.6672 29.3334L21.3335 29.3334L21.3335 28.1668C21.3339 27.663 21.2837 27.1605 21.1835 26.6667Z" fill="black"/>
    </g>
    <defs>
        <clipPath id="clip0">
            <rect width="32" height="32" fill="white" transform="translate(32) rotate(90)"/>
        </clipPath>
    </defs>
</svg>
